<svg version="1.0" xmlns="http://www.w3.org/2000/svg" width="682.667" height="682.667" viewBox="0 0 512 512">
  <path d="M41.5 1C23.2 4.8 8.5 18 2.4 36 .6 41.3.5 49.4.5 256s.1 214.7 1.9 220c5.2 15.4 16.8 27.4 32.2 33.2l5.9 2.3h431l5.9-2.3c15.4-5.8 27-17.8 32.2-33.2 1.8-5.3 1.9-13.4 1.9-220s-.1-214.7-1.9-220c-5.2-15.4-16.8-27.4-32.2-33.2L471.5.5l-213-.1C141.3.3 43.7.6 41.5 1zm120.8 133.9c37.9 7.7 57.4 26.4 60.7 58.2 2.9 28.1-7.2 49.3-30.8 65-6.6 4.4-18.4 9.7-25.5 11.4-1.5.4-2.7 1.3-2.5 1.9.2.6 16.4 25.1 36.1 54.3 19.6 29.3 35.7 53.5 35.7 53.8 0 .3-8.3.5-18.3.5h-18.4l-33.9-53-33.9-53H98v106H67V131.8l42.3.4c38.6.4 43.1.7 53 2.7zm195.7-.5c30.2 5.7 55.4 19.8 67.8 37.8 13.1 19.2 19.2 45.2 19.2 83 0 26.7-3.4 49-10.1 65.6-9.2 23.1-28.6 41.3-54.1 50.9-19 7.2-22 7.5-65.5 8l-39.3.5V131.8l36.8.5c27.8.4 38.8.9 45.2 2.1z"/>
  <path d="M98 203.5v46.8l24.8-.6c27-.7 34.4-1.7 44.7-6.6 11.6-5.4 18.7-14.4 21.4-26.9 1.4-6.5 1.4-22.2.1-28-2.7-11.3-9.2-19.5-19.6-24.4-10.2-4.8-17.5-5.8-45.6-6.5l-25.8-.6v46.8z"/>
  <path d="M308 256.5v98.7l21.8-.5c14.8-.3 23.3-.9 26.7-1.9 27.7-8.2 44.4-26.2 50.9-55.1 4.9-21.6 5.8-52.7 2.1-75.4-4.6-28.2-17.6-49-36-57.3-11.8-5.4-17.2-6.2-42.2-6.7l-23.3-.5v98.7z"/>
</svg>
