<?xml version="1.0" standalone="no"?>
<!DOCTYPE svg PUBLIC "-//W3C//DTD SVG 20010904//EN"
 "http://www.w3.org/TR/2001/REC-SVG-20010904/DTD/svg10.dtd">
<svg version="1.0" xmlns="http://www.w3.org/2000/svg"
 width="512.000000pt" height="512.000000pt" viewBox="0 0 512.000000 512.000000"
 preserveAspectRatio="xMidYMid meet">
<metadata>
Created by potrace 1.11, written by Peter Selinger 2001-2013
</metadata>
<g transform="translate(0.000000,512.000000) scale(0.100000,-0.100000)"
fill="#000000" stroke="none">
<path d="M415 5110 c-183 -38 -330 -170 -391 -350 -18 -53 -19 -134 -19 -2200
0 -2066 1 -2147 19 -2200 52 -154 168 -274 322 -332 l59 -23 2155 0 2155 0 59
23 c154 58 270 178 322 332 18 53 19 134 19 2200 0 2066 -1 2147 -19 2200 -52
154 -168 274 -322 332 l-59 23 -2130 1 c-1172 1 -2148 -2 -2170 -6z m1208
-1339 c379 -77 574 -264 607 -582 29 -281 -72 -493 -308 -650 -66 -44 -184
-97 -255 -114 -15 -4 -27 -13 -25 -19 2 -6 164 -251 361 -543 196 -293 357
-535 357 -538 0 -3 -83 -5 -183 -5 l-184 0 -339 530 -339 530 -167 0 -168 0 0
-530 0 -530 -155 0 -155 0 0 1241 0 1241 423 -4 c386 -4 431 -7 530 -27z
m1957 5 c302 -57 554 -198 678 -378 131 -192 192 -452 192 -830 0 -267 -34
-490 -101 -656 -92 -231 -286 -413 -541 -509 -190 -72 -220 -75 -655 -80
l-393 -5 0 1242 0 1242 368 -5 c278 -4 388 -9 452 -21z"/>
<path d="M980 3085 l0 -468 248 6 c270 7 344 17 447 66 116 54 187 144 214
269 14 65 14 222 1 280 -27 113 -92 195 -196 244 -102 48 -175 58 -456 65
l-258 6 0 -468z"/>
<path d="M3080 2555 l0 -987 218 5 c148 3 233 9 267 19 277 82 444 262 509
551 49 216 58 527 21 754 -46 282 -176 490 -360 573 -118 54 -172 62 -422 67
l-233 5 0 -987z"/>
</g>
</svg>
