<svg version="1" xmlns="http://www.w3.org/2000/svg" width="773.333" height="773.333" viewBox="0 0 580 580"><path d="M134.7 199.8l-4.7 4.8V245c0 40.1 0 40.4 2.2 42.7l2.1 2.3-2.1 2.3c-2.2 2.3-2.2 2.6-2.2 42.8v40.5l4.8 4.7 4.8 4.7h80.2l5.1-4.8 5.1-4.8v-81.2l-2.7-2.1-2.8-2.1 2.8-2.1 2.7-2.1v-81.2l-5.1-4.8-5.1-4.8h-80.4l-4.7 4.8zm85.3 45.4c0 39.9 0 40.2 2.2 42.5l2.1 2.3-2.1 2.3c-2.2 2.3-2.2 2.6-2.2 42.5V375h-80v-80.8l-2.7-2.1-2.8-2.1 2.8-2.1 2.7-2.1V205h80v40.2zM474.7 199.8l-4.7 4.8V245c0 40.1 0 40.4 2.2 42.7l2.1 2.3-2.1 2.3c-2.2 2.3-2.2 2.6-2.2 42.8v40.5l4.8 4.7 4.8 4.7h80.2l5.1-4.8 5.1-4.8v-81.2l-2.7-2.1-2.8-2.1 2.8-2.1 2.7-2.1v-81.2l-5.1-4.8-5.1-4.8h-80.4l-4.7 4.8zm85.3 45.4c0 39.9 0 40.2 2.2 42.5l2.1 2.3-2.1 2.3c-2.2 2.3-2.2 2.6-2.2 42.5V375h-80v-80.8l-2.7-2.1-2.8-2.1 2.8-2.1 2.7-2.1V205h80v40.2zM102.1 202.3c-2.1 2.3-2.1 2.8-2.1 42.7 0 40.1 0 40.4 2.2 42.7l2.1 2.3-2.1 2.3c-2.2 2.3-2.2 2.6-2.2 42.7 0 39.9 0 40.4 2.1 42.7l2.2 2.2 2.8-2 2.9-2V294.2l-2.7-2.1-2.8-2.1 2.8-2.1 2.7-2.1V204.1l-2.9-2-2.8-2-2.2 2.2zM442.1 202.3c-2.1 2.3-2.1 2.8-2.1 42.7 0 40.1 0 40.4 2.2 42.7l2.1 2.3-2.1 2.3c-2.2 2.3-2.2 2.6-2.2 42.7 0 39.9 0 40.4 2.1 42.7l2.2 2.2 2.8-2 2.9-2V294.2l-2.7-2.1-2.8-2.1 2.8-2.1 2.7-2.1V204.1l-2.9-2-2.8-2-2.2 2.2zM285 243v5h10v-10h-10v5zM285 338v5h10v-10h-10v5z"/></svg>